<?xml version="1.0" encoding="UTF-8"?>
<!DOCTYPE svg PUBLIC "-//W3C//DTD SVG 1.1//EN" "http://www.w3.org/Graphics/SVG/1.1/DTD/svg11.dtd">
<!-- Creator: CorelDRAW -->
<svg xmlns="http://www.w3.org/2000/svg" xml:space="preserve" width="0.500689in" height="0.473067in" version="1.1" style="shape-rendering:geometricPrecision; text-rendering:geometricPrecision; image-rendering:optimizeQuality; fill-rule:evenodd; clip-rule:evenodd"
viewBox="0 0 39.33 37.16"
 xmlns:xlink="http://www.w3.org/1999/xlink"
 xmlns:xodm="http://www.corel.com/coreldraw/odm/2003">
 <defs>
  <style type="text/css">
   <![CDATA[
    .fil0 {fill:#3E4095}
   ]]>
  </style>
 </defs>
 <g id="Layer_x0020_1">
  <metadata id="CorelCorpID_0Corel-Layer"/>
  <path class="fil0" d="M11.31 27.69l2.07 -2.07c-1.47,-1.55 -2.37,-3.65 -2.37,-5.95 0,-2.57 1.12,-4.88 2.9,-6.46 1.81,-1.63 4.29,-2.45 6.75,-2.14 2.11,0.24 3.99,1.24 5.36,2.72 0.01,0.01 0.02,0.01 0.03,0.02 0.41,-0.52 0.61,-0.68 1.13,-1.08 0.42,-0.32 0.75,-0.72 1.15,-1.04 -0.03,-0.04 -0.05,-0.08 -0.09,-0.13 -2.15,-2.28 -5.2,-3.7 -8.58,-3.7 -5.7,0 -10.45,4.03 -11.56,9.4 -0.39,2.26 -0.17,4.7 0.75,6.91 0.29,0.7 0.68,1.3 1.1,1.94 0.75,1.13 0.86,0.99 1.34,1.57z"/>
  <path class="fil0" d="M28.37 37.16c0.91,-0.31 1.97,-0.98 3,-1.79 1.54,-1.21 3.02,-2.73 3.92,-3.88 0.56,-0.71 1.2,-1.71 1.69,-2.59 2.94,-5.31 3,-11.48 0.87,-16.76 -2.96,-7.12 -9.98,-12.14 -18.18,-12.14 -10.56,0 -19.17,8.32 -19.65,18.76 -0.19,5.59 1.94,11.16 5.9,14.86 0.4,0.38 1.19,1.05 2.07,1.72 1.04,0.79 2.19,1.57 2.97,1.82l8.71 -8.15 8.71 8.15zm-9.61 -16.08l9.08 0 0.36 0c-0.48,2.95 -2.46,5.4 -5.13,6.55l-3.41 -3.17 -9.43 8.78c-4.29,-2.99 -7.09,-7.95 -7.09,-13.57 0,-5.32 2.51,-10.04 6.41,-13.07 2.69,-2.11 6.14,-3.48 10.11,-3.48 5.4,0 9.68,2.32 12.5,5.74 2.51,2.9 4.03,6.68 4.03,10.81 0,5.62 -2.81,10.59 -7.1,13.57l-3.74 -3.55c0.51,-0.38 0.85,-0.57 1.37,-0.96 0.51,-0.38 0.71,-0.6 1.17,-1.05 2.07,-2.06 2.92,-4.04 3.25,-6.61 0.06,-0.48 0.12,-0.98 0.13,-1.5l0.05 -1.65 -12.56 0 0.01 3.15z"/>
 </g>
</svg>
